<?xml version="1.0" encoding="UTF-8" standalone="no"?>
<!-- Created with Inkscape (http://www.inkscape.org/) -->

<svg
   xmlns:svg="http://www.w3.org/2000/svg"
   xmlns="http://www.w3.org/2000/svg"
   version="1.2"
   width="64"
   height="64"
   id="svg2834">
  <defs
     id="defs2836" />
  <g
     id="layer1">
    <g
       transform="matrix(1.1980963,0,0,1.2377822,4.8969399,-5.5425594)"
       id="flowRoot2844"
       style="font-size:50px;font-style:normal;font-weight:normal;fill:#000000;fill-opacity:1;stroke:none;font-family:Bitstream Vera Sans">
      <path
         d="M 37.177083,48.542578 C 36.764722,48.151953 36.428351,47.728776 36.167969,47.273046 35.92922,46.795617 35.723057,46.307337 35.549479,45.808203 35.375835,45.287372 35.213075,44.755689 35.061198,44.213151 34.930957,43.67062 34.779047,43.138937 34.605469,42.618098 L 34.14974,41.283463 c -0.455761,-0.607631 -0.868087,-1.22612 -1.23698,-1.855469 -0.368953,-0.62933 -0.748727,-1.236969 -1.139323,-1.822916 -0.390654,-0.607628 -0.81383,-1.193565 -1.269531,-1.757813 -0.434055,-0.564223 -0.954888,-1.085056 -1.5625,-1.5625 -0.434054,0.846367 -0.965737,1.595065 -1.595052,2.246094 -0.629365,0.629351 -1.323808,1.161035 -2.083333,1.595052 -0.759571,0.434037 -1.562522,0.759558 -2.408854,0.976562 -0.846374,0.217023 -1.703578,0.32553 -2.571615,0.325521 -1.497412,9e-6 -2.918852,-0.325511 -4.264323,-0.976562 C 14.694432,37.800401 13.457454,36.921495 12.307292,35.814713 11.157109,34.686254 10.093742,33.362471 9.1171875,31.843359 8.1623205,30.32428 7.2834151,28.707528 6.4804687,26.993098 5.6992153,25.25701 4.9939209,23.466648 4.3645833,21.622005 3.756943,19.777415 3.2361102,17.9545 2.8020833,16.153255 l 2.0833334,0.846354 c 0.3255179,1.280412 0.7269932,2.582494 1.204427,3.90625 0.4991277,1.302109 1.0850646,2.571639 1.7578125,3.808594 0.6944382,1.237001 1.4648368,2.398024 2.3111978,3.483073 0.868047,1.085088 1.833758,2.039948 2.897136,2.864583 1.085057,0.802968 2.267782,1.443158 3.548177,1.920573 1.280366,0.455744 2.680104,0.683608 4.199218,0.683594 0.954842,1.4e-5 1.779494,-0.130194 2.473959,-0.390625 0.716124,-0.282103 1.302061,-0.661877 1.757812,-1.139323 0.455706,-0.499116 0.792077,-1.074202 1.009115,-1.725261 0.238691,-0.672724 0.358049,-1.39972 0.358073,-2.180989 -2.4e-5,-0.824632 -0.09768,-1.616732 -0.292969,-2.376302 -0.173635,-0.781227 -0.4232,-1.46482 -0.748698,-2.050782 -0.303842,-0.607614 -0.661915,-1.085044 -1.074219,-1.432291 -0.390646,-0.368898 -0.813823,-0.553359 -1.269531,-0.553386 -0.672763,1.041692 -1.464863,1.855494 -2.376302,2.441406 -0.911476,0.585961 -1.855485,0.87893 -2.832031,0.878907 -0.585953,2.3e-5 -1.150188,-0.108484 -1.692709,-0.325521 -0.542548,-0.21699 -1.030828,-0.509959 -1.464843,-0.878906 -0.43404,-0.390601 -0.781262,-0.846329 -1.041667,-1.367188 -0.260428,-0.520807 -0.390636,-1.085043 -0.390625,-1.692708 -1.1e-5,-0.564208 0.09764,-1.117593 0.292969,-1.660156 0.195301,-0.564207 0.466568,-1.063338 0.813802,-1.497396 0.368911,-0.455698 0.802938,-0.813771 1.302083,-1.074219 0.52082,-0.282086 1.095906,-0.423145 1.725261,-0.423177 1.822899,3.2e-5 3.493905,0.336403 5.01302,1.009114 1.540777,0.672774 2.875411,1.605933 4.003907,2.79948 1.128447,1.193603 2.007352,2.615043 2.636718,4.264323 0.629313,1.627626 0.943983,3.407138 0.944011,5.338541 l 3.873698,6.705729 0,-21.907552 -32.84505233,0 0,-3.352864 42.22005233,0 0,3.352864 -6.022136,0 0,34.114584"
         id="path2853"
         style="font-variant:normal;font-stretch:normal;text-align:center;text-anchor:middle;font-family:AdorshoLipi;-inkscape-font-specification:AdorshoLipi" />
    </g>
  </g>
</svg>
